<mxfile host="app.diagrams.net" modified="2023-04-06T11:08:07.265Z" agent="Mozilla/5.0 (Windows NT 10.0; Win64; x64; rv:109.0) Gecko/20100101 Firefox/111.0" etag="FpdI68ficzSoLgKdE64N" version="21.1.4" type="github">
  <diagram name="Page-1" id="5pKvKy0BIaIAFNJ23iyw">
    <mxGraphModel dx="3215" dy="1920" grid="1" gridSize="10" guides="1" tooltips="1" connect="1" arrows="1" fold="1" page="1" pageScale="1" pageWidth="827" pageHeight="1169" math="0" shadow="0">
      <root>
        <mxCell id="0" />
        <mxCell id="1" parent="0" />
        <mxCell id="Ih2wy748P8lcP-gWS8Mn-1" value="patient enters hospital" style="ellipse;whiteSpace=wrap;html=1;" parent="1" vertex="1">
          <mxGeometry x="350" y="-40" width="120" height="80" as="geometry" />
        </mxCell>
        <mxCell id="Ih2wy748P8lcP-gWS8Mn-2" value="going to &lt;b&gt;emergency &lt;/b&gt;department?" style="rhombus;whiteSpace=wrap;html=1;" parent="1" vertex="1">
          <mxGeometry x="350" y="100" width="120" height="130" as="geometry" />
        </mxCell>
        <mxCell id="pPfEnhw-Z-XjJxT2VnOs-15" style="edgeStyle=orthogonalEdgeStyle;rounded=0;orthogonalLoop=1;jettySize=auto;html=1;exitX=0.5;exitY=1;exitDx=0;exitDy=0;entryX=0.5;entryY=0;entryDx=0;entryDy=0;" parent="1" source="Ih2wy748P8lcP-gWS8Mn-3" target="pPfEnhw-Z-XjJxT2VnOs-11" edge="1">
          <mxGeometry relative="1" as="geometry" />
        </mxCell>
        <mxCell id="Ih2wy748P8lcP-gWS8Mn-3" value="triage by nurse" style="rounded=0;whiteSpace=wrap;html=1;" parent="1" vertex="1">
          <mxGeometry x="345" y="540" width="130" height="40" as="geometry" />
        </mxCell>
        <mxCell id="Ih2wy748P8lcP-gWS8Mn-6" value="emergency dept is busy?" style="rhombus;whiteSpace=wrap;html=1;" parent="1" vertex="1">
          <mxGeometry x="345" y="325" width="130" height="130" as="geometry" />
        </mxCell>
        <mxCell id="pPfEnhw-Z-XjJxT2VnOs-4" style="edgeStyle=orthogonalEdgeStyle;rounded=0;orthogonalLoop=1;jettySize=auto;html=1;exitX=0.5;exitY=1;exitDx=0;exitDy=0;entryX=0.5;entryY=0;entryDx=0;entryDy=0;" parent="1" source="Ih2wy748P8lcP-gWS8Mn-21" target="pPfEnhw-Z-XjJxT2VnOs-1" edge="1">
          <mxGeometry relative="1" as="geometry" />
        </mxCell>
        <mxCell id="Ih2wy748P8lcP-gWS8Mn-21" value="patient leaves hospital" style="ellipse;whiteSpace=wrap;html=1;" parent="1" vertex="1">
          <mxGeometry x="350" y="1310" width="120" height="80" as="geometry" />
        </mxCell>
        <mxCell id="Ih2wy748P8lcP-gWS8Mn-25" value="yes" style="text;html=1;strokeColor=none;fillColor=none;align=center;verticalAlign=middle;whiteSpace=wrap;rounded=0;" parent="1" vertex="1">
          <mxGeometry x="475" y="360" width="60" height="30" as="geometry" />
        </mxCell>
        <mxCell id="Ih2wy748P8lcP-gWS8Mn-27" value="no" style="text;html=1;strokeColor=none;fillColor=none;align=center;verticalAlign=middle;whiteSpace=wrap;rounded=0;" parent="1" vertex="1">
          <mxGeometry x="400" y="450" width="60" height="30" as="geometry" />
        </mxCell>
        <mxCell id="Ih2wy748P8lcP-gWS8Mn-29" value="" style="endArrow=classic;html=1;rounded=0;entryX=0.5;entryY=0;entryDx=0;entryDy=0;exitX=0.5;exitY=1;exitDx=0;exitDy=0;" parent="1" source="Ih2wy748P8lcP-gWS8Mn-2" target="Ih2wy748P8lcP-gWS8Mn-6" edge="1">
          <mxGeometry width="50" height="50" relative="1" as="geometry">
            <mxPoint x="410" y="250" as="sourcePoint" />
            <mxPoint x="410" y="280" as="targetPoint" />
          </mxGeometry>
        </mxCell>
        <mxCell id="Ih2wy748P8lcP-gWS8Mn-30" value="yes" style="text;html=1;strokeColor=none;fillColor=none;align=center;verticalAlign=middle;whiteSpace=wrap;rounded=0;" parent="1" vertex="1">
          <mxGeometry x="400" y="220" width="60" height="30" as="geometry" />
        </mxCell>
        <mxCell id="Ih2wy748P8lcP-gWS8Mn-31" value="no" style="text;html=1;strokeColor=none;fillColor=none;align=center;verticalAlign=middle;whiteSpace=wrap;rounded=0;" parent="1" vertex="1">
          <mxGeometry x="300" y="160" width="60" height="30" as="geometry" />
        </mxCell>
        <mxCell id="Ih2wy748P8lcP-gWS8Mn-33" value="" style="endArrow=classic;html=1;rounded=0;exitX=0.5;exitY=1;exitDx=0;exitDy=0;entryX=0.5;entryY=0;entryDx=0;entryDy=0;" parent="1" source="Ih2wy748P8lcP-gWS8Mn-6" target="Ih2wy748P8lcP-gWS8Mn-3" edge="1">
          <mxGeometry width="50" height="50" relative="1" as="geometry">
            <mxPoint x="420" y="420" as="sourcePoint" />
            <mxPoint x="460" y="500" as="targetPoint" />
          </mxGeometry>
        </mxCell>
        <mxCell id="Ih2wy748P8lcP-gWS8Mn-36" value="going to surgical department?" style="rhombus;whiteSpace=wrap;html=1;" parent="1" vertex="1">
          <mxGeometry x="-10" y="100" width="120" height="130" as="geometry" />
        </mxCell>
        <mxCell id="K5UbOkIPx16ZLwXEy3-c-5" value="" style="edgeStyle=orthogonalEdgeStyle;rounded=0;orthogonalLoop=1;jettySize=auto;html=1;" edge="1" parent="1" source="Ih2wy748P8lcP-gWS8Mn-37" target="K5UbOkIPx16ZLwXEy3-c-3">
          <mxGeometry relative="1" as="geometry" />
        </mxCell>
        <mxCell id="Ih2wy748P8lcP-gWS8Mn-37" value="visit surgery" style="rounded=0;whiteSpace=wrap;html=1;" parent="1" vertex="1">
          <mxGeometry x="-15" y="540" width="130" height="40" as="geometry" />
        </mxCell>
        <mxCell id="Ih2wy748P8lcP-gWS8Mn-43" value="" style="endArrow=classic;html=1;rounded=0;exitX=0.4;exitY=0.018;exitDx=0;exitDy=0;exitPerimeter=0;" parent="1" edge="1">
          <mxGeometry width="50" height="50" relative="1" as="geometry">
            <mxPoint x="210" y="361.0799999999999" as="sourcePoint" />
            <mxPoint x="50" y="280" as="targetPoint" />
            <Array as="points">
              <mxPoint x="210" y="280" />
              <mxPoint x="60" y="280" />
            </Array>
          </mxGeometry>
        </mxCell>
        <mxCell id="Ih2wy748P8lcP-gWS8Mn-44" value="yes" style="text;html=1;strokeColor=none;fillColor=none;align=center;verticalAlign=middle;whiteSpace=wrap;rounded=0;" parent="1" vertex="1">
          <mxGeometry x="115" y="360" width="60" height="30" as="geometry" />
        </mxCell>
        <mxCell id="Ih2wy748P8lcP-gWS8Mn-45" value="no" style="text;html=1;strokeColor=none;fillColor=none;align=center;verticalAlign=middle;whiteSpace=wrap;rounded=0;" parent="1" vertex="1">
          <mxGeometry x="40" y="480" width="60" height="30" as="geometry" />
        </mxCell>
        <mxCell id="Ih2wy748P8lcP-gWS8Mn-48" value="yes" style="text;html=1;strokeColor=none;fillColor=none;align=center;verticalAlign=middle;whiteSpace=wrap;rounded=0;" parent="1" vertex="1">
          <mxGeometry x="40" y="220" width="60" height="30" as="geometry" />
        </mxCell>
        <mxCell id="Ih2wy748P8lcP-gWS8Mn-49" value="no" style="text;html=1;strokeColor=none;fillColor=none;align=center;verticalAlign=middle;whiteSpace=wrap;rounded=0;" parent="1" vertex="1">
          <mxGeometry x="-60" y="160" width="60" height="30" as="geometry" />
        </mxCell>
        <mxCell id="goqWlOmLxGw8GB3nW4Ue-60" style="edgeStyle=orthogonalEdgeStyle;rounded=0;orthogonalLoop=1;jettySize=auto;html=1;exitX=0;exitY=0.5;exitDx=0;exitDy=0;entryX=1;entryY=0.5;entryDx=0;entryDy=0;" parent="1" source="Ih2wy748P8lcP-gWS8Mn-52" target="goqWlOmLxGw8GB3nW4Ue-25" edge="1">
          <mxGeometry relative="1" as="geometry" />
        </mxCell>
        <mxCell id="Ih2wy748P8lcP-gWS8Mn-52" value="going to &lt;b&gt;paediatrics &lt;/b&gt;department?" style="rhombus;whiteSpace=wrap;html=1;" parent="1" vertex="1">
          <mxGeometry x="-410" y="100" width="120" height="130" as="geometry" />
        </mxCell>
        <mxCell id="Ih2wy748P8lcP-gWS8Mn-53" value="visit paediatrics" style="rounded=0;whiteSpace=wrap;html=1;" parent="1" vertex="1">
          <mxGeometry x="-415" y="540" width="130" height="40" as="geometry" />
        </mxCell>
        <mxCell id="Ih2wy748P8lcP-gWS8Mn-55" value="paediatrics dept is busy?" style="rhombus;whiteSpace=wrap;html=1;" parent="1" vertex="1">
          <mxGeometry x="-415" y="325" width="130" height="130" as="geometry" />
        </mxCell>
        <mxCell id="Ih2wy748P8lcP-gWS8Mn-58" value="" style="endArrow=classic;html=1;rounded=0;exitX=1;exitY=0.5;exitDx=0;exitDy=0;entryX=0;entryY=0.5;entryDx=0;entryDy=0;entryPerimeter=0;" parent="1" source="Ih2wy748P8lcP-gWS8Mn-55" edge="1">
          <mxGeometry width="50" height="50" relative="1" as="geometry">
            <mxPoint x="-260" y="430" as="sourcePoint" />
            <mxPoint x="-210" y="390" as="targetPoint" />
          </mxGeometry>
        </mxCell>
        <mxCell id="Ih2wy748P8lcP-gWS8Mn-59" value="" style="endArrow=classic;html=1;rounded=0;exitX=0.4;exitY=0.018;exitDx=0;exitDy=0;exitPerimeter=0;" parent="1" edge="1">
          <mxGeometry width="50" height="50" relative="1" as="geometry">
            <mxPoint x="-190" y="361.0799999999999" as="sourcePoint" />
            <mxPoint x="-350" y="280" as="targetPoint" />
            <Array as="points">
              <mxPoint x="-190" y="280" />
              <mxPoint x="-340" y="280" />
            </Array>
          </mxGeometry>
        </mxCell>
        <mxCell id="Ih2wy748P8lcP-gWS8Mn-60" value="yes" style="text;html=1;strokeColor=none;fillColor=none;align=center;verticalAlign=middle;whiteSpace=wrap;rounded=0;" parent="1" vertex="1">
          <mxGeometry x="-285" y="360" width="60" height="30" as="geometry" />
        </mxCell>
        <mxCell id="Ih2wy748P8lcP-gWS8Mn-61" value="no" style="text;html=1;strokeColor=none;fillColor=none;align=center;verticalAlign=middle;whiteSpace=wrap;rounded=0;" parent="1" vertex="1">
          <mxGeometry x="-360" y="480" width="60" height="30" as="geometry" />
        </mxCell>
        <mxCell id="Ih2wy748P8lcP-gWS8Mn-63" value="" style="endArrow=classic;html=1;rounded=0;entryX=0.5;entryY=0;entryDx=0;entryDy=0;exitX=0.5;exitY=1;exitDx=0;exitDy=0;" parent="1" source="Ih2wy748P8lcP-gWS8Mn-52" target="Ih2wy748P8lcP-gWS8Mn-55" edge="1">
          <mxGeometry width="50" height="50" relative="1" as="geometry">
            <mxPoint x="-350" y="250" as="sourcePoint" />
            <mxPoint x="-350" y="280" as="targetPoint" />
          </mxGeometry>
        </mxCell>
        <mxCell id="Ih2wy748P8lcP-gWS8Mn-64" value="yes" style="text;html=1;strokeColor=none;fillColor=none;align=center;verticalAlign=middle;whiteSpace=wrap;rounded=0;" parent="1" vertex="1">
          <mxGeometry x="-360" y="220" width="60" height="30" as="geometry" />
        </mxCell>
        <mxCell id="Ih2wy748P8lcP-gWS8Mn-65" value="no" style="text;html=1;strokeColor=none;fillColor=none;align=center;verticalAlign=middle;whiteSpace=wrap;rounded=0;" parent="1" vertex="1">
          <mxGeometry x="-460" y="160" width="60" height="30" as="geometry" />
        </mxCell>
        <mxCell id="Ih2wy748P8lcP-gWS8Mn-66" value="" style="endArrow=classic;html=1;rounded=0;exitX=0.5;exitY=1;exitDx=0;exitDy=0;entryX=0.5;entryY=0;entryDx=0;entryDy=0;" parent="1" source="Ih2wy748P8lcP-gWS8Mn-55" target="Ih2wy748P8lcP-gWS8Mn-53" edge="1">
          <mxGeometry width="50" height="50" relative="1" as="geometry">
            <mxPoint x="-340" y="420" as="sourcePoint" />
            <mxPoint x="-300" y="500" as="targetPoint" />
          </mxGeometry>
        </mxCell>
        <mxCell id="Ih2wy748P8lcP-gWS8Mn-68" value="" style="endArrow=classic;html=1;rounded=0;entryX=1;entryY=0.5;entryDx=0;entryDy=0;exitX=0;exitY=0.5;exitDx=0;exitDy=0;" parent="1" source="Ih2wy748P8lcP-gWS8Mn-2" target="Ih2wy748P8lcP-gWS8Mn-36" edge="1">
          <mxGeometry width="50" height="50" relative="1" as="geometry">
            <mxPoint x="420" y="240" as="sourcePoint" />
            <mxPoint x="420" y="335" as="targetPoint" />
          </mxGeometry>
        </mxCell>
        <mxCell id="Ih2wy748P8lcP-gWS8Mn-69" value="" style="endArrow=classic;html=1;rounded=0;entryX=0.5;entryY=0;entryDx=0;entryDy=0;exitX=0.5;exitY=1;exitDx=0;exitDy=0;" parent="1" source="Ih2wy748P8lcP-gWS8Mn-1" target="Ih2wy748P8lcP-gWS8Mn-2" edge="1">
          <mxGeometry width="50" height="50" relative="1" as="geometry">
            <mxPoint x="430" y="250" as="sourcePoint" />
            <mxPoint x="430" y="345" as="targetPoint" />
          </mxGeometry>
        </mxCell>
        <mxCell id="Ih2wy748P8lcP-gWS8Mn-70" value="" style="endArrow=classic;html=1;rounded=0;entryX=1;entryY=0.5;entryDx=0;entryDy=0;exitX=0;exitY=0.5;exitDx=0;exitDy=0;" parent="1" source="Ih2wy748P8lcP-gWS8Mn-36" target="Ih2wy748P8lcP-gWS8Mn-52" edge="1">
          <mxGeometry width="50" height="50" relative="1" as="geometry">
            <mxPoint x="-30" y="50" as="sourcePoint" />
            <mxPoint x="-270" y="50" as="targetPoint" />
          </mxGeometry>
        </mxCell>
        <mxCell id="goqWlOmLxGw8GB3nW4Ue-1" value="going to surgical department?" style="rhombus;whiteSpace=wrap;html=1;" parent="1" vertex="1">
          <mxGeometry x="-10" y="100" width="120" height="130" as="geometry" />
        </mxCell>
        <mxCell id="goqWlOmLxGw8GB3nW4Ue-3" value="" style="endArrow=classic;html=1;rounded=0;entryX=0.5;entryY=0;entryDx=0;entryDy=0;exitX=0.5;exitY=1;exitDx=0;exitDy=0;" parent="1" source="goqWlOmLxGw8GB3nW4Ue-1" edge="1">
          <mxGeometry width="50" height="50" relative="1" as="geometry">
            <mxPoint x="50" y="250" as="sourcePoint" />
            <mxPoint x="50" y="325" as="targetPoint" />
          </mxGeometry>
        </mxCell>
        <mxCell id="goqWlOmLxGw8GB3nW4Ue-4" value="going to surgical department?" style="rhombus;whiteSpace=wrap;html=1;" parent="1" vertex="1">
          <mxGeometry x="-10" y="100" width="120" height="130" as="geometry" />
        </mxCell>
        <mxCell id="goqWlOmLxGw8GB3nW4Ue-6" value="" style="endArrow=classic;html=1;rounded=0;entryX=0.5;entryY=0;entryDx=0;entryDy=0;exitX=0.5;exitY=1;exitDx=0;exitDy=0;" parent="1" source="goqWlOmLxGw8GB3nW4Ue-4" edge="1">
          <mxGeometry width="50" height="50" relative="1" as="geometry">
            <mxPoint x="50" y="250" as="sourcePoint" />
            <mxPoint x="50" y="325" as="targetPoint" />
          </mxGeometry>
        </mxCell>
        <mxCell id="goqWlOmLxGw8GB3nW4Ue-7" value="" style="endArrow=classic;html=1;rounded=0;exitX=0.4;exitY=0.018;exitDx=0;exitDy=0;exitPerimeter=0;" parent="1" edge="1">
          <mxGeometry width="50" height="50" relative="1" as="geometry">
            <mxPoint x="210" y="361.0799999999999" as="sourcePoint" />
            <mxPoint x="50" y="280" as="targetPoint" />
            <Array as="points">
              <mxPoint x="210" y="280" />
              <mxPoint x="60" y="280" />
            </Array>
          </mxGeometry>
        </mxCell>
        <mxCell id="goqWlOmLxGw8GB3nW4Ue-13" value="going to &lt;b&gt;surgical &lt;/b&gt;department?" style="rhombus;whiteSpace=wrap;html=1;" parent="1" vertex="1">
          <mxGeometry x="-10" y="100" width="120" height="130" as="geometry" />
        </mxCell>
        <mxCell id="goqWlOmLxGw8GB3nW4Ue-15" value="" style="endArrow=classic;html=1;rounded=0;entryX=0.5;entryY=0;entryDx=0;entryDy=0;exitX=0.5;exitY=1;exitDx=0;exitDy=0;" parent="1" source="goqWlOmLxGw8GB3nW4Ue-13" edge="1">
          <mxGeometry width="50" height="50" relative="1" as="geometry">
            <mxPoint x="50" y="250" as="sourcePoint" />
            <mxPoint x="50" y="325" as="targetPoint" />
          </mxGeometry>
        </mxCell>
        <mxCell id="goqWlOmLxGw8GB3nW4Ue-16" value="" style="endArrow=classic;html=1;rounded=0;exitX=0.4;exitY=0.018;exitDx=0;exitDy=0;exitPerimeter=0;" parent="1" edge="1">
          <mxGeometry width="50" height="50" relative="1" as="geometry">
            <mxPoint x="210" y="361.0799999999999" as="sourcePoint" />
            <mxPoint x="50" y="280" as="targetPoint" />
            <Array as="points">
              <mxPoint x="210" y="280" />
              <mxPoint x="60" y="280" />
            </Array>
          </mxGeometry>
        </mxCell>
        <mxCell id="goqWlOmLxGw8GB3nW4Ue-19" value="surgical dept is busy?" style="rhombus;whiteSpace=wrap;html=1;" parent="1" vertex="1">
          <mxGeometry x="-15" y="325" width="130" height="130" as="geometry" />
        </mxCell>
        <mxCell id="goqWlOmLxGw8GB3nW4Ue-21" value="" style="endArrow=classic;html=1;rounded=0;exitX=0.5;exitY=1;exitDx=0;exitDy=0;entryX=0.5;entryY=0;entryDx=0;entryDy=0;" parent="1" source="goqWlOmLxGw8GB3nW4Ue-19" edge="1">
          <mxGeometry width="50" height="50" relative="1" as="geometry">
            <mxPoint x="60" y="420" as="sourcePoint" />
            <mxPoint x="50" y="540" as="targetPoint" />
          </mxGeometry>
        </mxCell>
        <mxCell id="goqWlOmLxGw8GB3nW4Ue-23" value="" style="endArrow=classic;html=1;rounded=0;exitX=1;exitY=0.5;exitDx=0;exitDy=0;entryX=0;entryY=0.5;entryDx=0;entryDy=0;entryPerimeter=0;" parent="1" edge="1">
          <mxGeometry width="50" height="50" relative="1" as="geometry">
            <mxPoint x="115" y="390" as="sourcePoint" />
            <mxPoint x="190" y="390" as="targetPoint" />
          </mxGeometry>
        </mxCell>
        <mxCell id="goqWlOmLxGw8GB3nW4Ue-24" value="visit oncology" style="rounded=0;whiteSpace=wrap;html=1;" parent="1" vertex="1">
          <mxGeometry x="-780" y="540" width="130" height="40" as="geometry" />
        </mxCell>
        <mxCell id="goqWlOmLxGw8GB3nW4Ue-61" style="edgeStyle=orthogonalEdgeStyle;rounded=0;orthogonalLoop=1;jettySize=auto;html=1;exitX=0;exitY=0.5;exitDx=0;exitDy=0;entryX=1;entryY=0.5;entryDx=0;entryDy=0;" parent="1" source="goqWlOmLxGw8GB3nW4Ue-25" target="goqWlOmLxGw8GB3nW4Ue-37" edge="1">
          <mxGeometry relative="1" as="geometry" />
        </mxCell>
        <mxCell id="goqWlOmLxGw8GB3nW4Ue-25" value="going to &lt;b&gt;oncology &lt;/b&gt;department?" style="rhombus;whiteSpace=wrap;html=1;" parent="1" vertex="1">
          <mxGeometry x="-775" y="100" width="120" height="130" as="geometry" />
        </mxCell>
        <mxCell id="goqWlOmLxGw8GB3nW4Ue-26" value="yes" style="text;html=1;strokeColor=none;fillColor=none;align=center;verticalAlign=middle;whiteSpace=wrap;rounded=0;" parent="1" vertex="1">
          <mxGeometry x="-725" y="220" width="60" height="30" as="geometry" />
        </mxCell>
        <mxCell id="goqWlOmLxGw8GB3nW4Ue-27" value="" style="endArrow=classic;html=1;rounded=0;entryX=0.5;entryY=0;entryDx=0;entryDy=0;exitX=0.5;exitY=1;exitDx=0;exitDy=0;" parent="1" source="goqWlOmLxGw8GB3nW4Ue-25" edge="1">
          <mxGeometry width="50" height="50" relative="1" as="geometry">
            <mxPoint x="-715" y="250" as="sourcePoint" />
            <mxPoint x="-715" y="325" as="targetPoint" />
          </mxGeometry>
        </mxCell>
        <mxCell id="goqWlOmLxGw8GB3nW4Ue-28" value="" style="endArrow=classic;html=1;rounded=0;" parent="1" edge="1">
          <mxGeometry width="50" height="50" relative="1" as="geometry">
            <mxPoint x="-555" y="350" as="sourcePoint" />
            <mxPoint x="-715" y="280" as="targetPoint" />
            <Array as="points">
              <mxPoint x="-555" y="280" />
              <mxPoint x="-705" y="280" />
            </Array>
          </mxGeometry>
        </mxCell>
        <mxCell id="goqWlOmLxGw8GB3nW4Ue-29" value="yes" style="text;html=1;strokeColor=none;fillColor=none;align=center;verticalAlign=middle;whiteSpace=wrap;rounded=0;" parent="1" vertex="1">
          <mxGeometry x="-650" y="360" width="60" height="30" as="geometry" />
        </mxCell>
        <mxCell id="goqWlOmLxGw8GB3nW4Ue-31" value="oncology dept is busy?" style="rhombus;whiteSpace=wrap;html=1;" parent="1" vertex="1">
          <mxGeometry x="-780" y="325" width="130" height="130" as="geometry" />
        </mxCell>
        <mxCell id="goqWlOmLxGw8GB3nW4Ue-32" value="no" style="text;html=1;strokeColor=none;fillColor=none;align=center;verticalAlign=middle;whiteSpace=wrap;rounded=0;" parent="1" vertex="1">
          <mxGeometry x="-725" y="480" width="60" height="30" as="geometry" />
        </mxCell>
        <mxCell id="goqWlOmLxGw8GB3nW4Ue-33" value="" style="endArrow=classic;html=1;rounded=0;exitX=0.5;exitY=1;exitDx=0;exitDy=0;entryX=0.5;entryY=0;entryDx=0;entryDy=0;" parent="1" source="goqWlOmLxGw8GB3nW4Ue-31" edge="1">
          <mxGeometry width="50" height="50" relative="1" as="geometry">
            <mxPoint x="-705" y="420" as="sourcePoint" />
            <mxPoint x="-715" y="540" as="targetPoint" />
          </mxGeometry>
        </mxCell>
        <mxCell id="goqWlOmLxGw8GB3nW4Ue-35" value="" style="endArrow=classic;html=1;rounded=0;exitX=1;exitY=0.5;exitDx=0;exitDy=0;entryX=0;entryY=0.5;entryDx=0;entryDy=0;entryPerimeter=0;" parent="1" target="pPfEnhw-Z-XjJxT2VnOs-5" edge="1">
          <mxGeometry width="50" height="50" relative="1" as="geometry">
            <mxPoint x="-650" y="390" as="sourcePoint" />
            <mxPoint x="-575" y="390" as="targetPoint" />
          </mxGeometry>
        </mxCell>
        <mxCell id="goqWlOmLxGw8GB3nW4Ue-36" value="visit cardiology" style="rounded=0;whiteSpace=wrap;html=1;" parent="1" vertex="1">
          <mxGeometry x="-1200" y="540" width="130" height="40" as="geometry" />
        </mxCell>
        <mxCell id="goqWlOmLxGw8GB3nW4Ue-62" style="edgeStyle=orthogonalEdgeStyle;rounded=0;orthogonalLoop=1;jettySize=auto;html=1;exitX=0;exitY=0.5;exitDx=0;exitDy=0;entryX=1;entryY=0.5;entryDx=0;entryDy=0;" parent="1" source="goqWlOmLxGw8GB3nW4Ue-37" target="goqWlOmLxGw8GB3nW4Ue-49" edge="1">
          <mxGeometry relative="1" as="geometry" />
        </mxCell>
        <mxCell id="goqWlOmLxGw8GB3nW4Ue-37" value="going to &lt;b&gt;cardiology&lt;/b&gt; department?" style="rhombus;whiteSpace=wrap;html=1;" parent="1" vertex="1">
          <mxGeometry x="-1195" y="100" width="120" height="130" as="geometry" />
        </mxCell>
        <mxCell id="goqWlOmLxGw8GB3nW4Ue-38" value="yes" style="text;html=1;strokeColor=none;fillColor=none;align=center;verticalAlign=middle;whiteSpace=wrap;rounded=0;" parent="1" vertex="1">
          <mxGeometry x="-1145" y="220" width="60" height="30" as="geometry" />
        </mxCell>
        <mxCell id="goqWlOmLxGw8GB3nW4Ue-39" value="" style="endArrow=classic;html=1;rounded=0;entryX=0.5;entryY=0;entryDx=0;entryDy=0;exitX=0.5;exitY=1;exitDx=0;exitDy=0;" parent="1" source="goqWlOmLxGw8GB3nW4Ue-37" edge="1">
          <mxGeometry width="50" height="50" relative="1" as="geometry">
            <mxPoint x="-1135" y="250" as="sourcePoint" />
            <mxPoint x="-1135" y="325" as="targetPoint" />
          </mxGeometry>
        </mxCell>
        <mxCell id="goqWlOmLxGw8GB3nW4Ue-40" value="" style="endArrow=classic;html=1;rounded=0;exitX=0.188;exitY=0;exitDx=0;exitDy=0;exitPerimeter=0;" parent="1" source="pPfEnhw-Z-XjJxT2VnOs-9" edge="1">
          <mxGeometry width="50" height="50" relative="1" as="geometry">
            <mxPoint x="-975" y="340" as="sourcePoint" />
            <mxPoint x="-1135" y="280" as="targetPoint" />
            <Array as="points">
              <mxPoint x="-975" y="280" />
              <mxPoint x="-1125" y="280" />
            </Array>
          </mxGeometry>
        </mxCell>
        <mxCell id="goqWlOmLxGw8GB3nW4Ue-41" value="yes" style="text;html=1;strokeColor=none;fillColor=none;align=center;verticalAlign=middle;whiteSpace=wrap;rounded=0;" parent="1" vertex="1">
          <mxGeometry x="-1070" y="360" width="60" height="30" as="geometry" />
        </mxCell>
        <mxCell id="goqWlOmLxGw8GB3nW4Ue-43" value="cardiology is busy?" style="rhombus;whiteSpace=wrap;html=1;" parent="1" vertex="1">
          <mxGeometry x="-1200" y="325" width="130" height="130" as="geometry" />
        </mxCell>
        <mxCell id="goqWlOmLxGw8GB3nW4Ue-44" value="no" style="text;html=1;strokeColor=none;fillColor=none;align=center;verticalAlign=middle;whiteSpace=wrap;rounded=0;" parent="1" vertex="1">
          <mxGeometry x="-1145" y="480" width="60" height="30" as="geometry" />
        </mxCell>
        <mxCell id="goqWlOmLxGw8GB3nW4Ue-45" value="" style="endArrow=classic;html=1;rounded=0;exitX=0.5;exitY=1;exitDx=0;exitDy=0;entryX=0.5;entryY=0;entryDx=0;entryDy=0;" parent="1" source="goqWlOmLxGw8GB3nW4Ue-43" edge="1">
          <mxGeometry width="50" height="50" relative="1" as="geometry">
            <mxPoint x="-1125" y="420" as="sourcePoint" />
            <mxPoint x="-1135" y="540" as="targetPoint" />
          </mxGeometry>
        </mxCell>
        <mxCell id="goqWlOmLxGw8GB3nW4Ue-47" value="" style="endArrow=classic;html=1;rounded=0;exitX=1;exitY=0.5;exitDx=0;exitDy=0;entryX=0;entryY=0.5;entryDx=0;entryDy=0;entryPerimeter=0;" parent="1" target="pPfEnhw-Z-XjJxT2VnOs-9" edge="1">
          <mxGeometry width="50" height="50" relative="1" as="geometry">
            <mxPoint x="-1070" y="390" as="sourcePoint" />
            <mxPoint x="-995" y="390" as="targetPoint" />
          </mxGeometry>
        </mxCell>
        <mxCell id="goqWlOmLxGw8GB3nW4Ue-48" value="visit neurology" style="rounded=0;whiteSpace=wrap;html=1;" parent="1" vertex="1">
          <mxGeometry x="-1630" y="540" width="130" height="40" as="geometry" />
        </mxCell>
        <mxCell id="Ssy9WefJwnvrMq0k_zcZ-15" style="edgeStyle=orthogonalEdgeStyle;rounded=0;orthogonalLoop=1;jettySize=auto;html=1;exitX=0;exitY=0.5;exitDx=0;exitDy=0;entryX=0;entryY=0.5;entryDx=0;entryDy=0;" parent="1" source="goqWlOmLxGw8GB3nW4Ue-49" target="Ih2wy748P8lcP-gWS8Mn-21" edge="1">
          <mxGeometry relative="1" as="geometry">
            <Array as="points">
              <mxPoint x="-1700" y="165" />
              <mxPoint x="-1700" y="1350" />
            </Array>
          </mxGeometry>
        </mxCell>
        <mxCell id="goqWlOmLxGw8GB3nW4Ue-49" value="going to &lt;b&gt;neurology &lt;/b&gt;department?" style="rhombus;whiteSpace=wrap;html=1;" parent="1" vertex="1">
          <mxGeometry x="-1625" y="100" width="120" height="130" as="geometry" />
        </mxCell>
        <mxCell id="goqWlOmLxGw8GB3nW4Ue-50" value="yes" style="text;html=1;strokeColor=none;fillColor=none;align=center;verticalAlign=middle;whiteSpace=wrap;rounded=0;" parent="1" vertex="1">
          <mxGeometry x="-1575" y="220" width="60" height="30" as="geometry" />
        </mxCell>
        <mxCell id="goqWlOmLxGw8GB3nW4Ue-51" value="" style="endArrow=classic;html=1;rounded=0;entryX=0.5;entryY=0;entryDx=0;entryDy=0;exitX=0.5;exitY=1;exitDx=0;exitDy=0;" parent="1" source="goqWlOmLxGw8GB3nW4Ue-49" edge="1">
          <mxGeometry width="50" height="50" relative="1" as="geometry">
            <mxPoint x="-1565" y="250" as="sourcePoint" />
            <mxPoint x="-1565" y="325" as="targetPoint" />
          </mxGeometry>
        </mxCell>
        <mxCell id="goqWlOmLxGw8GB3nW4Ue-52" value="" style="endArrow=classic;html=1;rounded=0;exitX=0.4;exitY=0.018;exitDx=0;exitDy=0;exitPerimeter=0;" parent="1" edge="1">
          <mxGeometry width="50" height="50" relative="1" as="geometry">
            <mxPoint x="-1405" y="361.0799999999999" as="sourcePoint" />
            <mxPoint x="-1565" y="280" as="targetPoint" />
            <Array as="points">
              <mxPoint x="-1405" y="280" />
              <mxPoint x="-1555" y="280" />
            </Array>
          </mxGeometry>
        </mxCell>
        <mxCell id="goqWlOmLxGw8GB3nW4Ue-53" value="yes" style="text;html=1;strokeColor=none;fillColor=none;align=center;verticalAlign=middle;whiteSpace=wrap;rounded=0;" parent="1" vertex="1">
          <mxGeometry x="-1500" y="360" width="60" height="30" as="geometry" />
        </mxCell>
        <mxCell id="goqWlOmLxGw8GB3nW4Ue-55" value="neurology is busy?" style="rhombus;whiteSpace=wrap;html=1;" parent="1" vertex="1">
          <mxGeometry x="-1630" y="325" width="130" height="130" as="geometry" />
        </mxCell>
        <mxCell id="goqWlOmLxGw8GB3nW4Ue-56" value="no" style="text;html=1;strokeColor=none;fillColor=none;align=center;verticalAlign=middle;whiteSpace=wrap;rounded=0;" parent="1" vertex="1">
          <mxGeometry x="-1575" y="480" width="60" height="30" as="geometry" />
        </mxCell>
        <mxCell id="goqWlOmLxGw8GB3nW4Ue-57" value="" style="endArrow=classic;html=1;rounded=0;exitX=0.5;exitY=1;exitDx=0;exitDy=0;entryX=0.5;entryY=0;entryDx=0;entryDy=0;" parent="1" source="goqWlOmLxGw8GB3nW4Ue-55" edge="1">
          <mxGeometry width="50" height="50" relative="1" as="geometry">
            <mxPoint x="-1555" y="420" as="sourcePoint" />
            <mxPoint x="-1565" y="540" as="targetPoint" />
          </mxGeometry>
        </mxCell>
        <mxCell id="goqWlOmLxGw8GB3nW4Ue-59" value="" style="endArrow=classic;html=1;rounded=0;exitX=1;exitY=0.5;exitDx=0;exitDy=0;entryX=0;entryY=0.5;entryDx=0;entryDy=0;entryPerimeter=0;" parent="1" target="pPfEnhw-Z-XjJxT2VnOs-10" edge="1">
          <mxGeometry width="50" height="50" relative="1" as="geometry">
            <mxPoint x="-1500" y="390" as="sourcePoint" />
            <mxPoint x="-1425" y="390" as="targetPoint" />
          </mxGeometry>
        </mxCell>
        <mxCell id="goqWlOmLxGw8GB3nW4Ue-63" value="wait for surgery" style="shape=or;whiteSpace=wrap;html=1;" parent="1" vertex="1">
          <mxGeometry x="190" y="350" width="80" height="80" as="geometry" />
        </mxCell>
        <mxCell id="goqWlOmLxGw8GB3nW4Ue-64" value="wait for paediatrics" style="shape=or;whiteSpace=wrap;html=1;" parent="1" vertex="1">
          <mxGeometry x="-210" y="360" width="80" height="80" as="geometry" />
        </mxCell>
        <mxCell id="goqWlOmLxGw8GB3nW4Ue-65" value="" style="endArrow=classic;html=1;rounded=0;exitX=0.4;exitY=0.018;exitDx=0;exitDy=0;exitPerimeter=0;" parent="1" edge="1">
          <mxGeometry width="50" height="50" relative="1" as="geometry">
            <mxPoint x="570" y="361.0799999999999" as="sourcePoint" />
            <mxPoint x="410" y="280" as="targetPoint" />
            <Array as="points">
              <mxPoint x="570" y="280" />
              <mxPoint x="420" y="280" />
            </Array>
          </mxGeometry>
        </mxCell>
        <mxCell id="goqWlOmLxGw8GB3nW4Ue-66" value="" style="endArrow=classic;html=1;rounded=0;exitX=1;exitY=0.5;exitDx=0;exitDy=0;entryX=0;entryY=0.5;entryDx=0;entryDy=0;entryPerimeter=0;" parent="1" edge="1">
          <mxGeometry width="50" height="50" relative="1" as="geometry">
            <mxPoint x="475" y="390" as="sourcePoint" />
            <mxPoint x="550" y="390" as="targetPoint" />
          </mxGeometry>
        </mxCell>
        <mxCell id="goqWlOmLxGw8GB3nW4Ue-67" value="wait for emergency service" style="shape=or;whiteSpace=wrap;html=1;" parent="1" vertex="1">
          <mxGeometry x="550" y="350" width="80" height="80" as="geometry" />
        </mxCell>
        <mxCell id="pPfEnhw-Z-XjJxT2VnOs-1" value="end" style="ellipse;whiteSpace=wrap;html=1;" parent="1" vertex="1">
          <mxGeometry x="360" y="1440" width="100" height="60" as="geometry" />
        </mxCell>
        <mxCell id="pPfEnhw-Z-XjJxT2VnOs-3" style="edgeStyle=orthogonalEdgeStyle;rounded=0;orthogonalLoop=1;jettySize=auto;html=1;exitX=0.5;exitY=1;exitDx=0;exitDy=0;entryX=0.5;entryY=0;entryDx=0;entryDy=0;" parent="1" source="pPfEnhw-Z-XjJxT2VnOs-2" target="Ih2wy748P8lcP-gWS8Mn-1" edge="1">
          <mxGeometry relative="1" as="geometry" />
        </mxCell>
        <mxCell id="pPfEnhw-Z-XjJxT2VnOs-2" value="start" style="ellipse;whiteSpace=wrap;html=1;" parent="1" vertex="1">
          <mxGeometry x="360" y="-150" width="100" height="60" as="geometry" />
        </mxCell>
        <mxCell id="pPfEnhw-Z-XjJxT2VnOs-5" value="wait for oncology" style="shape=or;whiteSpace=wrap;html=1;" parent="1" vertex="1">
          <mxGeometry x="-570" y="350" width="80" height="80" as="geometry" />
        </mxCell>
        <mxCell id="pPfEnhw-Z-XjJxT2VnOs-9" value="wait for cardiology" style="shape=or;whiteSpace=wrap;html=1;" parent="1" vertex="1">
          <mxGeometry x="-990" y="350" width="80" height="80" as="geometry" />
        </mxCell>
        <mxCell id="pPfEnhw-Z-XjJxT2VnOs-10" value="wait for neurology" style="shape=or;whiteSpace=wrap;html=1;" parent="1" vertex="1">
          <mxGeometry x="-1420" y="350" width="80" height="80" as="geometry" />
        </mxCell>
        <mxCell id="pPfEnhw-Z-XjJxT2VnOs-16" style="edgeStyle=orthogonalEdgeStyle;rounded=0;orthogonalLoop=1;jettySize=auto;html=1;exitX=0.5;exitY=1;exitDx=0;exitDy=0;entryX=0.5;entryY=0;entryDx=0;entryDy=0;" parent="1" source="pPfEnhw-Z-XjJxT2VnOs-11" target="pPfEnhw-Z-XjJxT2VnOs-12" edge="1">
          <mxGeometry relative="1" as="geometry" />
        </mxCell>
        <mxCell id="pPfEnhw-Z-XjJxT2VnOs-11" value="initial assessment by physician" style="rounded=0;whiteSpace=wrap;html=1;" parent="1" vertex="1">
          <mxGeometry x="345" y="620" width="130" height="40" as="geometry" />
        </mxCell>
        <mxCell id="pPfEnhw-Z-XjJxT2VnOs-24" style="edgeStyle=orthogonalEdgeStyle;rounded=0;orthogonalLoop=1;jettySize=auto;html=1;exitX=1;exitY=0.5;exitDx=0;exitDy=0;entryX=1;entryY=0.5;entryDx=0;entryDy=0;" parent="1" source="pPfEnhw-Z-XjJxT2VnOs-12" target="Ih2wy748P8lcP-gWS8Mn-21" edge="1">
          <mxGeometry relative="1" as="geometry">
            <mxPoint x="640" y="780.3684210526317" as="targetPoint" />
            <Array as="points">
              <mxPoint x="590" y="780" />
              <mxPoint x="590" y="1350" />
            </Array>
          </mxGeometry>
        </mxCell>
        <mxCell id="pPfEnhw-Z-XjJxT2VnOs-12" value="&lt;font style=&quot;font-size: 9px;&quot;&gt;physician determines if the patient requires a full treatment&lt;/font&gt;" style="rhombus;whiteSpace=wrap;html=1;align=center;" parent="1" vertex="1">
          <mxGeometry x="330" y="700" width="160" height="160" as="geometry" />
        </mxCell>
        <mxCell id="pPfEnhw-Z-XjJxT2VnOs-22" style="edgeStyle=orthogonalEdgeStyle;rounded=0;orthogonalLoop=1;jettySize=auto;html=1;exitX=0.5;exitY=1;exitDx=0;exitDy=0;entryX=0.5;entryY=0;entryDx=0;entryDy=0;" parent="1" source="pPfEnhw-Z-XjJxT2VnOs-18" target="pPfEnhw-Z-XjJxT2VnOs-19" edge="1">
          <mxGeometry relative="1" as="geometry" />
        </mxCell>
        <mxCell id="pPfEnhw-Z-XjJxT2VnOs-18" value="treatment and discharge" style="rounded=0;whiteSpace=wrap;html=1;" parent="1" vertex="1">
          <mxGeometry x="345" y="1100" width="130" height="40" as="geometry" />
        </mxCell>
        <mxCell id="pPfEnhw-Z-XjJxT2VnOs-23" style="edgeStyle=orthogonalEdgeStyle;rounded=0;orthogonalLoop=1;jettySize=auto;html=1;exitX=0.5;exitY=1;exitDx=0;exitDy=0;entryX=0.5;entryY=0;entryDx=0;entryDy=0;" parent="1" source="pPfEnhw-Z-XjJxT2VnOs-19" target="Ih2wy748P8lcP-gWS8Mn-21" edge="1">
          <mxGeometry relative="1" as="geometry" />
        </mxCell>
        <mxCell id="pPfEnhw-Z-XjJxT2VnOs-19" value="issue receipt" style="rounded=0;whiteSpace=wrap;html=1;" parent="1" vertex="1">
          <mxGeometry x="345" y="1209" width="130" height="40" as="geometry" />
        </mxCell>
        <mxCell id="pPfEnhw-Z-XjJxT2VnOs-26" value="no, they do not" style="text;html=1;align=center;verticalAlign=middle;resizable=0;points=[];autosize=1;strokeColor=none;fillColor=none;" parent="1" vertex="1">
          <mxGeometry x="480" y="750" width="100" height="30" as="geometry" />
        </mxCell>
        <mxCell id="pPfEnhw-Z-XjJxT2VnOs-27" value="diagnostics (x-ray?)" style="rhombus;whiteSpace=wrap;html=1;" parent="1" vertex="1">
          <mxGeometry x="460" y="890" width="120" height="110" as="geometry" />
        </mxCell>
        <mxCell id="pPfEnhw-Z-XjJxT2VnOs-31" value="diagnostics (lab work?)" style="rhombus;whiteSpace=wrap;html=1;" parent="1" vertex="1">
          <mxGeometry x="240" y="890" width="120" height="110" as="geometry" />
        </mxCell>
        <mxCell id="Ssy9WefJwnvrMq0k_zcZ-4" value="" style="endArrow=classic;html=1;rounded=0;exitX=0;exitY=1;exitDx=0;exitDy=0;entryX=0.5;entryY=0;entryDx=0;entryDy=0;" parent="1" source="pPfEnhw-Z-XjJxT2VnOs-12" target="pPfEnhw-Z-XjJxT2VnOs-31" edge="1">
          <mxGeometry width="50" height="50" relative="1" as="geometry">
            <mxPoint x="240" y="880" as="sourcePoint" />
            <mxPoint x="290" y="830" as="targetPoint" />
          </mxGeometry>
        </mxCell>
        <mxCell id="Ssy9WefJwnvrMq0k_zcZ-6" value="" style="endArrow=classic;html=1;rounded=0;entryX=0.5;entryY=0;entryDx=0;entryDy=0;" parent="1" source="pPfEnhw-Z-XjJxT2VnOs-12" target="pPfEnhw-Z-XjJxT2VnOs-27" edge="1">
          <mxGeometry width="50" height="50" relative="1" as="geometry">
            <mxPoint x="380" y="830" as="sourcePoint" />
            <mxPoint x="340" y="900" as="targetPoint" />
          </mxGeometry>
        </mxCell>
        <mxCell id="Ssy9WefJwnvrMq0k_zcZ-10" value="" style="endArrow=classic;html=1;rounded=0;exitX=0.5;exitY=1;exitDx=0;exitDy=0;entryX=0.5;entryY=0;entryDx=0;entryDy=0;" parent="1" source="pPfEnhw-Z-XjJxT2VnOs-31" target="pPfEnhw-Z-XjJxT2VnOs-18" edge="1">
          <mxGeometry width="50" height="50" relative="1" as="geometry">
            <mxPoint x="330" y="1060" as="sourcePoint" />
            <mxPoint x="380" y="1010" as="targetPoint" />
            <Array as="points">
              <mxPoint x="300" y="1020" />
            </Array>
          </mxGeometry>
        </mxCell>
        <mxCell id="Ssy9WefJwnvrMq0k_zcZ-11" value="" style="endArrow=classic;html=1;rounded=0;exitX=0.5;exitY=1;exitDx=0;exitDy=0;entryX=0.5;entryY=0;entryDx=0;entryDy=0;" parent="1" source="pPfEnhw-Z-XjJxT2VnOs-27" target="pPfEnhw-Z-XjJxT2VnOs-18" edge="1">
          <mxGeometry width="50" height="50" relative="1" as="geometry">
            <mxPoint x="505" y="1020" as="sourcePoint" />
            <mxPoint x="505" y="1090" as="targetPoint" />
            <Array as="points">
              <mxPoint x="520" y="1020" />
            </Array>
          </mxGeometry>
        </mxCell>
        <mxCell id="Ssy9WefJwnvrMq0k_zcZ-12" value="no" style="text;html=1;strokeColor=none;fillColor=none;align=center;verticalAlign=middle;whiteSpace=wrap;rounded=0;" parent="1" vertex="1">
          <mxGeometry x="-835" y="160" width="60" height="30" as="geometry" />
        </mxCell>
        <mxCell id="Ssy9WefJwnvrMq0k_zcZ-13" value="no" style="text;html=1;strokeColor=none;fillColor=none;align=center;verticalAlign=middle;whiteSpace=wrap;rounded=0;" parent="1" vertex="1">
          <mxGeometry x="-1240" y="160" width="60" height="30" as="geometry" />
        </mxCell>
        <mxCell id="Ssy9WefJwnvrMq0k_zcZ-14" value="no???" style="text;html=1;strokeColor=none;fillColor=none;align=center;verticalAlign=middle;whiteSpace=wrap;rounded=0;" parent="1" vertex="1">
          <mxGeometry x="-1660" y="170" width="60" height="30" as="geometry" />
        </mxCell>
        <mxCell id="K5UbOkIPx16ZLwXEy3-c-6" value="" style="edgeStyle=orthogonalEdgeStyle;rounded=0;orthogonalLoop=1;jettySize=auto;html=1;" edge="1" parent="1" source="K5UbOkIPx16ZLwXEy3-c-3" target="K5UbOkIPx16ZLwXEy3-c-4">
          <mxGeometry relative="1" as="geometry" />
        </mxCell>
        <mxCell id="K5UbOkIPx16ZLwXEy3-c-3" value="pre-surgery assessment by nurse" style="rounded=0;whiteSpace=wrap;html=1;" vertex="1" parent="1">
          <mxGeometry x="-15" y="620" width="130" height="40" as="geometry" />
        </mxCell>
        <mxCell id="K5UbOkIPx16ZLwXEy3-c-9" value="" style="edgeStyle=orthogonalEdgeStyle;rounded=0;orthogonalLoop=1;jettySize=auto;html=1;" edge="1" parent="1" source="K5UbOkIPx16ZLwXEy3-c-4" target="K5UbOkIPx16ZLwXEy3-c-7">
          <mxGeometry relative="1" as="geometry" />
        </mxCell>
        <mxCell id="K5UbOkIPx16ZLwXEy3-c-4" value="pre-surgery assessment by anaesthesiologist" style="rounded=0;whiteSpace=wrap;html=1;" vertex="1" parent="1">
          <mxGeometry x="-15" y="700" width="130" height="40" as="geometry" />
        </mxCell>
        <mxCell id="K5UbOkIPx16ZLwXEy3-c-11" value="" style="edgeStyle=orthogonalEdgeStyle;rounded=0;orthogonalLoop=1;jettySize=auto;html=1;" edge="1" parent="1" source="K5UbOkIPx16ZLwXEy3-c-7" target="K5UbOkIPx16ZLwXEy3-c-8">
          <mxGeometry relative="1" as="geometry" />
        </mxCell>
        <mxCell id="K5UbOkIPx16ZLwXEy3-c-7" value="surgery" style="rounded=0;whiteSpace=wrap;html=1;" vertex="1" parent="1">
          <mxGeometry x="-15" y="780" width="130" height="40" as="geometry" />
        </mxCell>
        <mxCell id="K5UbOkIPx16ZLwXEy3-c-8" value="&lt;div&gt;recovery&lt;/div&gt;" style="rounded=0;whiteSpace=wrap;html=1;" vertex="1" parent="1">
          <mxGeometry x="-15" y="860" width="130" height="40" as="geometry" />
        </mxCell>
      </root>
    </mxGraphModel>
  </diagram>
</mxfile>
